<?xml version="1.0" encoding="utf-8"?>
<!-- Generator: Adobe Illustrator 18.1.1, SVG Export Plug-In . SVG Version: 6.00 Build 0)  -->
<svg version="1.1" id="Layer_1" xmlns="http://www.w3.org/2000/svg" xmlns:xlink="http://www.w3.org/1999/xlink" x="0px" y="0px"
	 viewBox="0 0 76.4 17.3" width="76.4" height="17.3" enable-background="new 0 0 76.4 17.3" xml:space="preserve">
<polygon points="0,0.2 0,1.4 2,1.4 2,6.5 3.6,6.5 3.6,1.4 5.7,1.4 5.7,0.2 "/>
<polygon points="11.8,5.3 11.8,6.5 7.3,6.5 7.3,0.2 11.6,0.2 11.6,1.4 8.9,1.4 8.9,2.6 11.2,2.6 11.2,3.8 8.9,3.8 8.9,5.3 "/>
<polygon points="13.8,6.5 13.8,0.2 15.4,0.2 15.4,2.9 18.3,0.1 19.6,0.6 16.7,3.2 20.1,6 18.7,6.7 15.4,3.6 15.4,6.5 "/>
<polygon points="22.9,2.3 22.9,6.5 21.3,6.5 21.3,0.2 22.9,0.2 26,4.4 26,0.2 27.6,0.2 27.6,6.5 26,6.5 "/>
<g>
	<path d="M36.2,3.3c0,1.7-1.3,3.3-3.4,3.3c-2.1,0-3.4-1.7-3.4-3.3c0-1.7,1.3-3.3,3.4-3.3C34.9,0,36.2,1.7,36.2,3.3 M32.8,5.5
		c1.3,0,1.8-1.1,1.8-2.1S34,1.2,32.8,1.2c-1.3,0-1.8,1-1.8,2.1S31.5,5.5,32.8,5.5"/>
</g>
<polygon points="42.3,5.3 42.3,6.5 37.9,6.5 37.9,0.2 39.5,0.2 39.5,5.3 "/>
<g>
	<path d="M50.2,3.3c0,1.7-1.3,3.3-3.4,3.3c-2.1,0-3.4-1.7-3.4-3.3c0-1.7,1.3-3.3,3.4-3.3C48.9,0,50.2,1.7,50.2,3.3 M46.8,5.5
		c1.3,0,1.8-1.1,1.8-2.1S48,1.2,46.8,1.2c-1.3,0-1.8,1-1.8,2.1S45.5,5.5,46.8,5.5"/>
	<path d="M58,0.9l-1.1,0.9c-0.5-0.4-1-0.6-1.8-0.6c-1.3,0-2,1.2-1.9,2.2c0,1,0.7,2,1.9,2c0.6,0,0.9-0.1,1.3-0.4V3.3H58v2.3
		c-0.7,0.8-1.8,1.1-2.9,1.1c-2.1,0-3.5-1.6-3.6-3.2C51.4,1.7,52.9,0,55.1,0C56.3,0,57.1,0.2,58,0.9"/>
</g>
<rect x="59.9" y="0.2" width="1.6" height="6.4"/>
<g>
	<path d="M63.5,1.8c0-1,1.3-1.8,2.5-1.8c0.9,0,1.6,0.2,2.2,0.7l-1,0.9c-0.3-0.3-0.6-0.5-1.2-0.5c-0.5,0-0.9,0.3-0.9,0.6
		c0,0.4,0.4,0.5,0.9,0.7l0.5,0.2c1.2,0.5,1.9,0.9,1.9,2c0,1.1-1.2,2-2.7,2c-0.9,0-1.6-0.2-2.4-0.8l1.1-1c0.4,0.5,0.9,0.6,1.4,0.6
		c0.5,0,1-0.4,1-0.7c0-0.4-0.4-0.6-0.9-0.8l-0.5-0.2C64.3,3.2,63.5,2.9,63.5,1.8"/>
</g>
<polygon points="70.1,6.5 70.1,0.2 71.7,0.2 71.7,2.9 74.6,0.1 76,0.6 73.1,3.2 76.4,6 75,6.7 71.7,3.6 71.7,6.5 "/>
<rect x="2" y="10.8" fill="#9C9C9C" width="1" height="6.4"/>
<polygon fill="#9C9C9C" points="6.6,12.4 6.6,17.2 5.6,17.2 5.6,10.8 6.6,10.8 10.3,15.6 10.3,10.8 11.3,10.8 11.3,17.2 10.3,17.2 
	"/>
<g>
	<path fill="#9C9C9C" d="M13.5,12.3c0-0.9,1.1-1.6,2.3-1.6c0.7,0,1.4,0.2,1.8,0.6l-0.7,0.6c-0.3-0.3-0.7-0.5-1.2-0.5
		c-0.6,0-1.2,0.4-1.2,0.9c0,0.5,0.5,0.8,1.2,1.1l0.5,0.2c0.8,0.4,1.7,0.8,1.7,1.8c0,1-1,1.9-2.4,1.9c-1,0-1.7-0.4-2.1-0.8l0.8-0.6
		c0.3,0.5,0.9,0.7,1.5,0.7c0.7,0,1.2-0.5,1.2-1c0-0.5-0.4-0.8-1.2-1.1l-0.5-0.2C14.3,13.7,13.5,13.3,13.5,12.3"/>
</g>
<polygon fill="#9C9C9C" points="21.1,17.2 21.1,11.6 19.1,11.6 19.1,10.8 24.2,10.8 24.2,11.6 22.1,11.6 22.1,17.2 "/>
<rect x="26.1" y="10.8" fill="#9C9C9C" width="1" height="6.4"/>
<polygon fill="#9C9C9C" points="31.1,17.2 31.1,11.6 29,11.6 29,10.8 34.1,10.8 34.1,11.6 32.1,11.6 32.1,17.2 "/>
<g>
	<path fill="#9C9C9C" d="M41.5,14.5c0,1.6-1.1,2.8-2.9,2.8c-1.8,0-2.9-1.2-2.9-2.8v-3.7h1v3.7c0,1.2,0.7,2,1.9,2
		c1.2,0,1.9-0.8,1.9-2v-3.7h1V14.5z"/>
</g>
<polygon fill="#9C9C9C" points="45.2,17.2 45.2,11.6 43.2,11.6 43.2,10.8 48.3,10.8 48.3,11.6 46.2,11.6 46.2,17.2 "/>
</svg>
